<?xml version="1.0" encoding="UTF-8"?>
<svg width="640" height="122.31" version="1.1" viewBox="0 0 169.33 32.36" xmlns="http://www.w3.org/2000/svg">
 <g transform="translate(-96.115 8.7524)">
  <rect class="rect-o-0" x="199.42" y="-6.6315" width="2.1018" height="27.967" rx=".24728%" fill="#010c80" stroke="transparent" stroke-width="0"/>
  <path class="undefined-text-0" d="m108.29 14.7q0 0.85644 0.24468 1.2663 0.2447 0.41598 0.79528 0.66068l-0.79528 2.5387q-1.3152-0.15293-2.1288-0.67292-0.8075-0.51998-1.2051-1.6211-1.4988 2.3552-4.3434 2.3552-2.1717 0-3.4563-1.3764-1.2847-1.3764-1.2847-3.6093 0-2.6305 1.7435-4.0253 1.7435-1.3886 5.0469-1.3886h1.6211v-1.0094q0-1.5294-0.61174-2.1717-0.61173-0.64233-1.9882-0.64233-1.5905 0-3.9151 0.82585l-0.88702-2.5387q2.7834-1.1623 5.4139-1.1623 5.7504 0 5.7504 5.4751zm-6.3927 1.7435q1.6823 0 2.6305-1.9882v-3.3646h-1.2235q-3.3646 0-3.3646 2.8752 0 1.2235 0.51998 1.8475 0.51998 0.63009 1.4376 0.63009zm19.178-20.738 3.8234 0.39763v22.665h-3.3952l-0.21413-1.9576q-1.5905 2.4164-4.1292 2.4164-2.6917 0-4.1292-2.2634-1.4376-2.2634-1.4376-6.2703 0-2.5387 0.73409-4.4841 0.73408-1.9392 2.0616-3.0098 1.3336-1.0705 3.077-1.0705 2.1411 0 3.6093 1.7129zm-2.8446 20.646q0.88703 0 1.5599-0.50775 0.67291-0.50163 1.2847-1.511v-7.6162q-0.58116-0.85644-1.2112-1.2847-0.62398-0.42822-1.4192-0.42822-1.3458 0-2.1105 1.3581-0.76468 1.3642-0.76468 4.3005 0 3.0281 0.68514 4.3556 0.69127 1.3336 1.9759 1.3336zm18.903-13.764h3.8234l-4.6859 16.181h-4.5269l-4.7655-16.181h4.0008l3.0587 13.122zm23.026-4.9551 1.4682 21.136h-3.7928l-0.45882-8.9008q-0.24468-5.1386-0.24468-7.3103l0.0305-1.2847-3.334 15.202h-3.701l-3.5175-15.232q0.0305 0.9482 0.0305 2.8446 0 3.2116-0.12235 5.9033l-0.42821 8.7785h-3.7622l1.4682-21.136h5.0469l3.2116 14.865 2.9975-14.865zm19.239 21.136h-4.0987l-1.1623-4.9245h-6.1174l-1.1623 4.9245h-4.0069l5.8727-21.136h4.8328zm-8.3197-18.108-2.3858 10.185h4.7716zm17.832-3.4869q1.7435 0 3.0709 0.55057 1.3336 0.55057 2.6182 1.6517l-1.9576 2.294q-1.7129-1.4376-3.5175-1.4376-2.0799 0-3.2728 1.8658-1.1929 1.8658-1.1929 6.0562 0 4.0987 1.1929 5.9951 1.1929 1.8964 3.3034 1.8964 1.1011 0 1.927-0.41598 0.82585-0.40987 1.8352-1.2051l1.8964 2.2634q-1.0705 1.1011-2.5387 1.8169-1.4682 0.72186-3.3034 0.72186-2.5387 0-4.4535-1.2418-1.9086-1.2357-2.967-3.7316-1.0522-2.4898-1.0522-6.0991 0-3.5481 1.1011-6.0257 1.1011-2.4776 2.9975-3.7133 1.8964-1.2418 4.3128-1.2418z" fill="#010c80" stroke-width=".61174"/>
  <path d="m255.49 2.4491v-5.9866l-13.822-5.215h-34.719v32.36h34.719l13.822-5.215v-7.2312h9.957v-8.7123zm-29.871-9.3347h14.313v6.8454h-9.3346v-5.6008h-4.9785zm-2.4893 28.626h-14.313v-2.4892h7.4677v-1.8669h-7.4677v-1.2446h7.4677v-1.8669h-7.4677v-1.2446h7.4677v-1.8669h-7.4677v-1.2446h7.4677v-1.8669h-7.4677v-1.2446h7.4677v-1.8669h-7.4677v-1.2446h7.4677v-1.8669h-7.4677v-1.2446h7.4677v-1.8669h-7.4677v-1.2446h7.4677v-1.8669h-7.4677v-2.4892h14.313zm16.802 0h-14.313v-1.2446h4.9785v-6.2231h9.3346zm-11.202-9.3347v5.6008h-4.3562v-21.781h4.3562v6.2231h18.047v9.957zm24.892 4.5553-11.824 4.1695v-6.8579h6.8454v-14.313h-6.8454v-6.2355l11.824 4.1757z" fill="#00ffef" stroke-width=".62231"/>
 </g>
</svg>
